<?xml version="1.0" encoding="UTF-8"?>
<svg class="svg-map ng-isolate-scope" ng-if="svgSupport" regions="selectedRegions" svg-map="getMapRegions(regionsData)" version="1.1" viewBox="0 0 800 480" xmlns="http://www.w3.org/2000/svg">
<g class="area-cover jihocesky" data-id="1">
<path class="area" transform="translate(-15 -70)" d="m173.5 445.61 6 1.75 6.116 5.332-1 3.097 4.347 6.521 7.607 1.359 2.173 6.792 5.162 6.792 2.174 6.249 5.705 0.271 9.781 9.237 5.162 1.901 5.706 6.793-4.075 4.347 8.966 8.966h10.324l10.324 1.901 8.422 4.891 11.954-10.053 2.445-6.248 6.249 5.434 6.792 1.358 5.434-1.358 8.966 5.977 3.532-5.705-1.086-5.434 1.087-9.237 7.607-6.248 2.717-7.879 7.064 0.271 9.781 2.988 1.63-2.988-2.445-4.347 1.358-5.978 2.445-7.336-0.815-9.509-0.543-10.053 2.988-5.705 8.966 2.988 7.607 1.631 2.445 8.15 11.683-2.717 3.26-4.348 7.879 0.272 11.955 6.248 4.075 1.902 4.077 5.972 3.25-7-4-6.25-4.5-4 5.5-5.75 1-6.25 5.25-1 0.75-4.5-7.25-5.75-7 1.5-8.5-0.25-6.5-6.5 1-5.5-3.25-4.5-7.25 1.25-8-3-5 2.75-5.5-5-2.75-5-6.25-3.5-4.75 2.75-5.5-4.5-2.75-5 1.25-4.5-2.75-5.75v-7.75l3-3.75 0.25-7-1.75-6.5-3.25-4.75-2.25-5.5-4.25 0.5-7.75-6.5-5.25 3.75 1.5 7.75-6.5 3.5-3.5 4-7.25-3-8-2-4.5 0.75-6.5-3-6.25 3.75s-3.648-0.235-4.25-0.25-4-5-4-5h-6l-3 3.75-13.5 1.5-3.75-4h-4.75l-2.75 4.75-7 3.5-4.5-2.25-13.75-0.5-2.75 4 1.5 5.5v4.5l-0.75 7.75 3.5 5.75-4.5 7-3.5 2.75v3.75l-3 2.75 3.75 4.25-4.75 2.5 3 6-2.5 6-6 2.25-1.5 2.75-4.5-1.5-1.25 9.75 2.5 4-1.25 3.5-5.25 2.25-1.675 5.975-0.076 3.778z"/>
<text class="caption" x="258.125" y="357.582"><tspan class="tspan" dy="0">Jihočeský kraj</tspan></text>
</g>
<g class="area-cover plzensky" data-id="2">
<path class="area" transform="translate(-15 -70)" d="m151.03 246.77-3.39 8.288-5.651 1.507v8.476l-7.534-5.651-7.911-0.942-15.069 9.794v5.651l-3.861 3.861-6.31-3.107-3.202 1.507-6.216-3.768-7.534 3.202-5.368 5.368-4.991-4.427-4.521 3.768-7.113-0.291-7.879 11.954-0.477 7.149-8.216 7.523 6.249 7.063 7.607 5.162-0.543 7.879 5.162 5.978-0.272 7.335 8.151 5.706-0.815 8.965 1.358 6.248 6.521 3.532 5.706 5.978 4.347 7.335 7.879 2.174 2.717-1.901 7.063 1.358 8.966 6.521 1.087 7.335 7.879 7.879v3.804l7.335 5.706 1.358 5.705 4.891 3.532h6.792l6.521 6.521 5.977 8.693 0.815 9.51 11.139 7.335 3.827-6.375 0.075-3.775 1.675-5.975 5.25-2.25 1.25-3.5-2.5-4 1.25-9.75 4.5 1.5 1.5-2.75 6-2.25 2.5-6-3-6 4.75-2.5-3.75-4.25 3-2.75v-3.75l3.5-2.75 4.5-7-3.5-5.75 0.75-7.75v-4.5l-1.5-5.5 2.75-4-3.25-5.5 0.25-6 1.25-4.5-3.25-2.5-3.5-4.5 1.75-5-4-4.25 5.25-3.75h5.5l4.75-5.75-2.25-4.5 2.5-4.25-2.25-6 4.75-4.75-1.25-3.75 0.5-6.5-4.25-2.75-5-1-0.25-4-5 1s-5.056-6.706-5.25-6.75-4.5 1.75-4.5 1.75l-4.5-2.25-4-2.25-0.75-4.25-6.75-0.5-4 2.5-3.5-3.25 2.75-3.5-2.295-2.884-6.781-3.956h-4.148z"/>
<text class="caption" x="112.892" y="269.378"><tspan class="tspan" dy="0">Plzeňský kraj</tspan></text>
</g>
<g class="area-cover karlovarsky" data-id="3">
<path class="area" transform="translate(-15 -70)" d="m69.47 280.3-7.113-0.291v-5.162l-5.162-2.445 0.271-5.977-15.215-10.324-9.509-4.89-4.076-7.336-4.075-4.619 1.902-8.422-6.249-9.509-4.483-4.483 3.125-6.113-2.716-6.792h8.694l2.173 2.174v5.977h4.619l2.581 2.581-1.495 4.211 2.717 2.717v6.792l4.076 4.076 1.902-9.781s-1.358-3.261 0-4.619 5.434-5.434 5.434-5.434l2.445-8.151 10.596-5.705v-3.804l3.396-3.396 7.743-1.223 9.781-1.63 3.26 3.26 5.434-6.792 10.053-2.717 10.596 7.879 4.844 4.844h10.017l4.897 1.85s-0.257 4.215 0 4.709 10.736-1.13 10.736-1.13l4.709 4.709-4.615 4.615 2.543 4.803-1.695 6.215 4.144 4.144-1.695 3.579 4.708 6.404-4.709 4.708 6.969 6.97-3.39 8.288-5.651 1.507v8.476l-7.534-5.651-7.911-0.942-15.069 9.794v5.651l-3.861 3.861-6.31-3.107-3.202 1.507-6.216-3.768-7.534 3.202-5.368 5.368-4.991-4.427-4.521 3.769z"/>
<text class="caption" x="75.394" y="166.714"><tspan class="tspan" dy="0">Karlovarský kraj</tspan></text>
</g>
<g class="area-cover ustecky" data-id="4">
<path class="area" transform="translate(-15 -70)" d="m110.17 190.35 9.509-5.162-0.271-7.335 3.26-3.261 9.781-1.63 8.151 1.087 3.26-5.977v-4.347l2.717-4.89h3.26l1.63 4.89 4.075-1.358v-5.977l2.582-2.582 1.494-3.939h3.803l1.63 5.162 4.347 2.717 8.422-5.977 0.543-10.052 3.939-3.939 4.483 2.309 5.434-4.89 3.532 3.532 6.521-3.532 7.335-0.815 1.63 3.804h2.989l4.89-4.89v-7.607l6.249-1.087 4.347-4.347 5.705 3.532 8.694-4.619 3.532-3.532 7.335 0.543 3.532-7.063h4.89l1.902 2.173 9.781-3.532 1.087-6.792-8.151-2.717v-5.162l-8.15-1.63 2.988-5.434 2.717-7.064 8.151 3.804 1.902 1.902h4.89l7.607-2.717 4.89 4.89 4.891 4.619 0.271 5.977-4.075 6.792 9.237-1.63-1.63 9.509v4.347l-6.402 2.236-0.942 7.346-6.404-2.449-7.157-0.942 1.507 6.027-4.803 4.803v3.861l-4.191 4.191s-4.07 5.686-4.002 6.734 3.39 5.462 3.39 5.462v5.086l7.159 11.863 5.084 6.217-2.26 3.015 0.942 7.158h-4.709l-1.507 4.521h-4.897l1.695 8.476-3.579 3.579-8.099-0.753-4.333 4.333h-16.387l-7.911-3.579-6.404 3.39v4.521l-5.18 5.18h-5.933l-2.025 2.024 0.142 3.909-5.651-3.391-6.215 6.215-8.665-0.188-8.288 5.086-7.346 0.376-5.651 5.274-1.13 6.592-6.216 2.637-3.39 5.462-6.781-3.956-4.147 1e-3 -6.969-6.97 4.709-4.708-4.708-6.404 1.695-3.579-4.144-4.144 1.695-6.215-2.543-4.803 4.615-4.615-4.709-4.709-10.736 1.13v-4.709l-4.897-1.85h-10.017l-4.843-4.844z"/>
<text class="caption" x="191.758" y="114.843"><tspan class="tspan" dy="0">Ústecký kraj</tspan></text>
</g>
<g class="area-cover liberecky" data-id="5">
<path class="area" transform="translate(-15 -70)" d="m401.15 127.86 6.046 6.834-1.883 7.911 3.201 7.723-1.506 4.144 3.767 3.767-3.014 6.027 5.651 5.651v3.579l-9.606 2.072-4.521-4.521-5.839 3.767v5.085l-4.897 2.825-3.202-4.897-10.925-3.767-7.157 4.709-7.911-5.086-5.085-2.26v-3.767l-7.111-3.626-3.249-3.249h-5.557l-4.238-4.238-4.144 7.157-6.593 7.346-2.26-2.26-5.65 0.941v4.709l-7.911 6.404-9.418 2.26-2.26-6.781-10.928 0.565-5.084-6.217-7.159-11.863v-5.086l-3.39-5.462 4.002-6.734 4.191-4.191v-3.861l4.803-4.803-1.507-6.027 7.157 0.942 6.404 2.449 0.942-7.346 6.402-2.236 16.845 5.162 5.434-7.879 10.052-0.543s6.614 1.228 7.064 0.815 1.63-9.509 1.63-9.509l2.173-8.694-4.619-4.619 4.347-4.347h7.335l3.804 3.532 5.977-3.26 3.26 5.706 4.89-2.173 5.434 6.521-2.445 5.434 2.717 8.422 9.237 9.237 0.543 7.879 1.766 1.766 6.113-5.57 7.882 3.531z"/>
<text class="caption" x="326.365" y="78.970"><tspan class="tspan" dy="0">Liberecký kraj</tspan></text>
</g>
<g class="area-cover kralovehradecky" data-id="6">
<path class="area" transform="translate(-15 -70)" d="m401.15 127.86 8.151 0.543 8.965 4.075 2.717 2.717 6.249 1.087 6.792-3.804 2.717 5.977 3.804 8.422h4.891l7.063-2.717 4.348 8.15-0.544 5.162 6.793-4.89 4.618-4.619 8.15 5.705 4.076 0.272 1.358-5.977h11.139l13.856 13.584-4.619 4.076-1.087 7.879-8.693 3.26-12.498 9.781 1.087 5.434 7.063 8.15 5.978-2.988 3.396 3.396v4.211l3.871 3.872 4.958-0.611 5.706 10.053 7.879 6.249 1.358 10.053 2.828 5.804-8.395-3.759h-3.955v5.462l-9.982 2.825-5.274 5.274-1.695 7.157h-9.418l-6.592 1.883-4.238-4.238-7.252-4.238-4.144-4.144h-4.521v-6.591l-3.391-3.39-7.723-0.188-6.404 3.202-3.296 3.296s-3.148-1.099-3.484-1.225 0-5.651 0-5.651h-4.897l-5.086 6.969h-9.605l-5.274-3.014-9.936 8.604-8.711 1.944 2.072-6.781-8.099-4.332 3.956-6.969-2.072-4.521 1.13-5.65-1.318-6.028-3.014-3.014-5.462 3.579-8.853-1.13v-5.274l-4.803-4.803-6.31-1.224-1.318-4.709 4.803-4.803-2.919-8.005 1.695-4.709-2.825-4.521 2.446-3.768 7.911 5.086 7.157-4.709 10.925 3.767 3.202 4.897 4.897-2.825v-5.085l5.839-3.767 4.521 4.521s9.508-1.965 9.606-2.072 0-3.579 0-3.579l-5.651-5.651 3.014-6.027-3.767-3.767 1.506-4.144-3.201-7.723 1.883-7.911-6.048-6.833z"/>
<text class="caption" x="411.838" y="138.436"><tspan class="tspan" dy="0">Královéhradecký kraj</tspan></text>
</g>
<g class="area-cover pardubicky" data-id="7">
<path class="area" transform="translate(-15 -70)" d="m555.74 226.76-1.742 8.187-4.667 9-1.5 8.667 2.5 4.167-10 8.167v5.667l2.5 5.833 1 7.334 2.417 2.417-5.583 3.749 4.166 8.167 4.5 8.833v4.5l5.667 2.5v7.5l-5.167 5.167v5.667l-3.166 4.5-6.167-6.167h-18.5l-3.667 6h-12.333l-3.25 3.25-7.25-7.25-5.833-0.167-7.167-8.5-14-3.166-2.5-5.834-6.667 0.167v-3.667l-6.833 4.334v5.666l-7.667-2.666-3.833-2v-5l-5.167-2.667-4-0.833-4.166-4.334-7-4.5-9.667 0.165-9-7-2-8.166 3.667-3.667 0.5-7.667-6.833-3.333-0.167-4.667-5.5-1.833-5.667-3.333 0.833-4.667 3.415-4.93 8.711-1.944 9.936-8.604 5.274 3.014s9.129 0.33 9.605 0 5.086-6.969 5.086-6.969h4.897v5.651l3.484 1.225 3.296-3.296 6.404-3.202 7.723 0.188 3.391 3.39v6.593h4.521l4.144 4.144 7.252 4.238 4.238 4.238 6.592-1.883h9.418l1.695-7.157 5.274-5.274 9.982-2.825v-5.462h3.955l8.395 3.759 12.387 6.965 10.731-10.731-0.136-6.385 9.239-3.263z"/>
<text class="caption" x="460.871" y="218.309"><tspan class="tspan" dy="0">Pardubický kraj</tspan></text>
</g>
<g class="area-cover olomoucky" data-id="8">
<path class="area" transform="translate(-15 -70)" d="m617.69 214.26v10.351h-4.937l-4.5 4.5-10 6.5v7l-3.5 3.5 2.75 5-6 8.5-1.75 7.75 4.125 4.125-3.875 6.375-1.25 7.5 3.625 3.625h4.625v5.375h6.25l4 4 7.25-2 6 8.75h5l4.25 2.25 5-3.5 4.25 4.25 5.5-3 7.5 4-1.75 8.5h7.75l2.75 7.5 6 2 5.125 5.125-0.625 5.125h5.5l2.75 5.5-4.125 4.125-4.125-1.375-6.75 4.5v7l-5.375 5.375-5.875-6.625-7.75 2.75 2.25 6.75-6.75 2-5-1.5-4.125 4.125-2.875 5.125-3.875-3.875-6.625 0.375-2-4.75-4 3.5 2.25 7.75-3.75 3.75-2.25 3.5-9.5 1.5-5.875 5.875-3.875-6.625v-3.75l-3.125-3.125h-6.875l-1-5.375v-5l-6-3.75v-4.5l-3.875-3.875-2.375-5.125h-5.5l-3.75 4.25 8.125 8.125-4.375 6.375-3 3-7.5-5.5 3.5-3.5-4.5-6v-6.5l5-5.25-5.75-1.75-4.75-0.25 2.917-7.833 3.166-4.5v-5.667l5.167-5.167v-7.5l-5.667-2.5v-4.5l-4.5-8.833-4.166-8.167 5.583-3.749-2.417-2.417-1-7.334-2.5-5.833v-5.667s9.888-7.911 10-8.167-2.5-4.167-2.5-4.167l1.5-8.667 4.667-9 1.742-8.187 8.693-4.076h6.793l0.271-8.422-4.483-4.483-4.482-1.766-3.261-11.683-7.063-3.804 3.804-7.335 8.422 2.173 6.249 1.358 10.324 2.989 4.211 4.211 7.2-2.31 1.087 7.064 5.705 4.347h8.694l2.173 7.607 7.608 1.634z"/>
<text class="caption" x="594.916" y="274.324"><tspan class="tspan" dy="0">Olomoucký kraj</tspan></text>
</g>
<g class="area-cover zlinsky" data-id="9">
<path class="area" transform="translate(-15 -70)" d="m737.5 365.05-5.75-2.686-1.25-5.75-7-4.5-0.5-4.5-5.5 2.25h-5.25l-6-4.25-8-1.75-8 3.25-5-4.25h-5.75l-4.125 4.125-4.125-1.375-6.75 4.5v7s-4.336 4.626-5.375 5.375-5.875-6.625-5.875-6.625l-7.75 2.75 2.25 6.75-6.75 2-5-1.5-4.125 4.125-2.875 5.125-3.875-3.875-6.625 0.375-2-4.75-4 3.5 2.25 7.75-3.75 3.75-2.25 3.5-9.5 1.5-5.875 5.875-3.625 4.875 3 5.25-1.5 5.25 6.75 0.75-0.75 5-4.5 3-5 5.25 3.75 4.75 8.25-3.25 3 3.25-0.75 5.75 6.25 3.5 8.25 1-0.25 5.75 5.25-0.25 5.5 5 6.5-2.5 5.75 3.5 0.25 4 6.25 1.5 3.75 5.5 2.146 2.7h4.891l7.064-4.347 4.89-8.423 10.053-0.543 1.766-13.449 3.939-3.939 13.041-1.087 6.793-9.78v-11.682l3.531-10.053v-7.063l5.434-8.422 7.336-1.902 6.792-3.532 5.978-2.173 4.346-10.869z"/>
<text class="caption" x="640.625" y="338.585"><tspan class="tspan" dy="0">Zlínský kraj</tspan></text>
</g>
<g class="area-cover stredocesky" data-id="11">
<path class="area" d="m389.17 203.11-6.833-3.333-0.167-4.667-5.5-1.833-5.667-3.333 0.833-4.667 3.415-4.93 2.072-6.781-8.099-4.332 3.956-6.969-2.072-4.521 1.13-5.65-1.318-6.028-3.014-3.014-5.462 3.579-8.853-1.13v-5.274l-4.803-4.803-6.31-1.224-1.318-4.709 4.803-4.803-2.919-8.005 1.695-4.709-2.825-4.521 2.446-3.768-5.085-2.26v-3.767l-7.111-3.626-3.249-3.249h-5.557l-4.238-4.238-4.144 7.157-6.593 7.346-2.26-2.26-5.65 0.941v4.709l-7.911 6.404-9.418 2.26-2.26-6.781-10.928 0.565-2.26 3.015 0.942 7.158h-4.709l-1.507 4.521h-4.897l1.695 8.476-3.579 3.579-8.099-0.753-4.333 4.333h-16.387l-7.911-3.579-6.404 3.39v4.521l-5.18 5.18h-5.933l-2.025 2.024 0.142 3.909-5.651-3.391-6.215 6.215-8.665-0.188-8.288 5.086-7.346 0.376-5.651 5.274-1.13 6.592-6.216 2.637-3.39 5.462 2.295 2.884-2.75 3.5 3.5 3.25 4-2.5 6.75 0.5 0.75 4.25 4 2.25 4.5 2.25 4.5-1.75 5.25 6.75 5-1 0.25 4 5 1 4.25 2.75-0.5 6.5 1.25 3.75-4.75 4.75 2.25 6-2.5 4.25 2.25 4.5-4.75 5.75h-5.501l-5.25 3.75 4 4.25-1.75 5 3.5 4.5 3.25 2.5-1.25 4.5-0.25 6 3.25 5.5 13.75 0.5 4.5 2.25 7-3.5 2.75-4.75h4.75l3.75 4 13.5-1.5 3-3.75h6l4 5 4.25 0.25 6.25-3.75 6.5 3 4.5-0.75 8 2 7.25 3 3.5-4 6.5-3.5-1.5-7.75 5.25-3.75 7.75 6.5 4.25-0.5 2.25 5.5 3.25 4.75 2.75-2.75 0.25-5.25 5.5-5.5 8.25 1.25 6.5-0.25 4.5 0.75 2.25-4 3.75 1.75 4.75-3.25-0.25-5.25-7.75-3.75 0.25-5.75 3.75-3.5 0.75-4 3-1.75 4 1 3.25-3h5.75l2-4.25 5.75 0.25-0.5-6 4-3.25 6-0.5-2-8.166 3.667-3.667z"/>
<text class="caption" x="267.834" y="248.640"><tspan class="tspan" dy="0">Středočeský kraj</tspan></text>
</g>
<g class="area-cover praha" data-id="10">
<path class="area" d="m222.42 171.92 11.83-5.915 4.507 2.535s7.046 1.36 7.887 0.563c0.842-0.798-1.972-7.323-1.972-7.323l5.07-3.098 7.042 1.408 7.887-4.225 4.225-5.633 9.295 0.282 2.253 3.943 5.352 1.69 1.69 2.535 6.197-1.408-1.69 6.197 8.168 1.972 3.662 5.915h5.352l5.07 6.478-0.845 5.07-8.168 0.845-5.633 3.943 3.943 3.38 0.845 8.732-5.915 5.352-6.76-4.507-8.736-1.127-4.225 4.225-7.887 1.972-4.507 6.478-6.197 0.282-5.915 2.817-1.69 4.507-7.605 1.69-5.633-6.197 2.817-9.013-7.887-3.943 2.253-5.07-6.478-4.225-5.07-7.323 3.943-5.915-6.476-7.891z"/>
<text class="caption" x="267.334" y="189.861"><tspan class="tspan" dy="0">Praha</tspan></text>
</g>
<g class="area-cover moravskoslezsky" data-id="12">
<path class="area" transform="translate(-15 -70)" d="m617.69 214.26v10.351h-4.937l-4.5 4.5-10 6.5v7l-3.5 3.5 2.75 5-6 8.5-1.75 7.75 4.125 4.125-3.875 6.375-1.25 7.5 3.625 3.625h4.625v5.375h6.25l4 4 7.25-2 6 8.75h5l4.25 2.25 5-3.5 4.25 4.25 5.5-3 7.5 4-1.75 8.5h7.75l2.75 7.5 6 2 5.125 5.125-0.625 5.125h5.5l2.75 5.5h5.75l5 4.25 8-3.25 8 1.75 6 4.25h5.25l5.5-2.25 0.5 4.5 7 4.5 1.25 5.75 5.75 2.686 4.619-1.63 8.694-11.411-0.544-6.521 5.978-2.717 4.891 2.445 8.15-1.63 6.792 2.173 8.694-4.075 1.358-6.521-4.891-13.312-2.988-9.237h-7.064l-2.988-3.532-8.966-2.717-1.358-6.521-5.978-13.041 3.261-7.063-2.717-1.087-2.717-7.607-5.434 4.075-10.596-5.977-9.238-1.358-3.26 5.706-4.891-8.15-6.249-2.989-2.988-3.804-5.434 3.532-5.434-2.445 0.407-6.657-4.482-4.482-6.521 1.087-3.261 8.422s-5.534 5.937-6.249 6.249-5.841-0.136-5.841-0.136l-5.569-5.569-5.706-1.902-2.988-8.965-5.162-7.336-5.842 0.68-5.569-5.57v-4.619l9.781-2.989 7.743-3.804v-4.483l-5.026-5.026 1.087-5.434-5.434-5.434-2.718 5.434-4.075 4.075-13.584-1.087-9.506 2.173z"/>
<text class="caption" x="657.440" y="221.355"><tspan class="tspan" dy="0">Moravskoslezský kraj</tspan></text>
</g>
<g class="area-cover vysocina" data-id="13">
<path class="area" transform="translate(-15 -70)" d="m502.75 339.86-7.25-7.25-5.833-0.167-7.167-8.5-14-3.166-2.5-5.834-6.667 0.167v-3.667l-6.833 4.334s0.229 5.478 0 5.666-7.667-2.666-7.667-2.666l-3.833-2v-5l-5.167-2.667-4-0.833-4.166-4.334-7-4.5-9.667 0.167-9-7-6 0.5-4 3.25 0.5 6-5.75-0.25-2 4.25h-5.75l-3.25 3-4-1-3 1.75-0.75 4-3.75 3.5-0.25 5.75 7.75 3.75s0.282 4.616 0.25 5.25-4.75 3.25-4.75 3.25l-3.75-1.75-2.25 4-4.5-0.75-6.5 0.25-8.25-1.25-5.5 5.5-0.25 5.25-2.75 2.75 1.75 6.5-0.25 7-3 3.75v7.75l2.75 5.75-1.25 4.5 2.75 5 5.5 4.5 4.75-2.75 6.25 3.5 2.75 5 5.5 5 5-2.75 8 3 7.25-1.25 3.25 4.5-1 5.5 6.5 6.5 8.5 0.25 7-1.5 7.25 5.75-0.75 4.5-5.25 1-1 6.25-5.5 5.75 4.5 4 4 6.25 4.5-2.25 4.5 3.25 5.5-5.75 5.75 4.25 3-5.75 3.5-1 3.25-4.5h6l2.25-5.25 7-3 6.25 4.25 4.25-2.5 5.75 1.75 5.5-2.75 3-4.75 4.75 1.25 2.25-5.5 3.75-1 1.75-3.25-4.5-3.25-1.5-5 5.75-3.5-5.25-5.25 1.25-4.5 4-3.25-3.75-4.75 4.5-3 1.75-4 9.75-4.5-0.5-9-2-5 2.25-4.75-2.75-6.5 5-3 1.5-3-5.25-3.5 1.25-4.75z"/>
<text class="caption" x="405.375" y="303.235"><tspan class="tspan" dy="0">Vysočina kraj</tspan></text>
</g>
<g class="area-cover jihomoravsky" data-id="14">
<path class="area" transform="translate(-15 -70)" d="m546.67 336.78-6.167-6.167h-18.5l-3.667 6h-12.333l-3.25 3.25-1.25 4.75 5.25 3.5-1.5 3-5 3 2.75 6.5-2.25 4.75 2 5 0.5 9-9.75 4.5-1.75 4-4.5 3 3.75 4.75-4 3.25-1.25 4.5 5.25 5.25-5.75 3.5 1.5 5s4.37 2.587 4.5 3.25-1.75 3.25-1.75 3.25l-3.75 1-2.25 5.5-4.75-1.25-3 4.75-5.5 2.75-5.75-1.75-4.25 2.5-6.25-4.25-7 3-2.25 5.25h-6l-3.25 4.5-3.5 1-3 5.75-5.75-4.25-5.5 5.75-4.5-3.25-4.5 2.25-3.25 7 3.53 0.549 7.063 0.814 8.15 5.978 8.151 0.815 1.901-3.261 8.15 0.815 11.955 8.422 1.358 4.348 15.757 8.693 18.747-0.271 14.399 2.717 5.434-6.249 2.988-8.15 10.053-0.543 4.347 4.618 10.053 1.63 1.358 6.793 5.162-1.631 8.966 5.435 8.15-2.174 5.434 3.532 2.717 13.584 4.348-0.543 3.26-11.411 2.174-7.879 8.966-11.14 2.173-7.607 3.261-1.358 4.89-4.89h5.162l10.053 4.347 8.694 5.162 8.693-5.705 7.336 4.89 6.521-1.63 6.792-6.249-2.146-2.7-3.75-5.5-6.25-1.5-0.25-4-5.75-3.5-6.5 2.5-5.5-5-5.25 0.25 0.25-5.75-8.25-1-6.25-3.5 0.75-5.75-3-3.25-8.25 3.25-3.75-4.75 5-5.25 4.5-3 0.75-5-6.75-0.75 1.5-5.25-3-5.25 3.625-4.875-3.875-6.625v-3.75l-3.125-3.125h-6.875l-1-5.375v-5l-6-3.75v-4.5l-3.875-3.875-2.375-5.125h-5.5l-3.75 4.25 8.125 8.125-4.375 6.375-3 3-7.5-5.5 3.5-3.5-4.5-6v-6.5l5-5.25-5.75-1.75-4.75-0.25 2.917-7.834z"/>
<text class="caption" x="519.572" y="383.467"><tspan class="tspan" dy="0">Jihomoravský kraj</tspan></text>
</g>
</svg>
